<svg xmlns="http://www.w3.org/2000/svg" xmlns:xlink="http://www.w3.org/1999/xlink" width="1000" zoomAndPan="magnify" viewBox="0 0 750 749.999995" height="1000" preserveAspectRatio="xMidYMid meet" version="1.0"><defs><clipPath id="84d7379cad"><path d="M 52.382812 48.414062 L 701.882812 48.414062 L 701.882812 697.914062 L 52.382812 697.914062 Z M 52.382812 48.414062 " clip-rule="nonzero"/></clipPath></defs><rect x="-75" width="900" fill="#ffffff" y="-74.999999" height="899.999994" fill-opacity="1"/><rect x="-75" width="900" fill="#ffffff" y="-74.999999" height="899.999994" fill-opacity="1"/><g clip-path="url(#84d7379cad)"><path fill="#000000" d="M 242.550781 50.644531 C 208.011719 52.265625 184.421875 57.804688 163.800781 65.882812 C 142.449219 74.203125 124.367188 85.339844 106.378906 103.417969 C 88.359375 121.5 77.285156 139.613281 69.054688 160.996094 C 61.070312 181.679688 55.65625 205.265625 54.125 239.835938 C 52.59375 274.4375 52.257812 285.480469 52.410156 373.652344 C 52.566406 461.792969 52.960938 472.867188 54.613281 507.5 C 56.265625 542.039062 61.773438 565.597656 69.851562 586.246094 C 78.171875 607.601562 89.308594 625.652344 107.386719 643.671875 C 125.46875 661.691406 143.582031 672.734375 164.964844 680.996094 C 185.617188 688.980469 209.234375 694.425781 243.773438 695.925781 C 278.40625 697.453125 289.449219 697.789062 377.589844 697.605469 C 465.761719 697.453125 476.804688 697.054688 511.4375 695.402344 C 545.976562 693.753906 569.535156 688.214844 590.183594 680.167969 C 611.539062 671.816406 629.617188 660.710938 647.609375 642.628906 C 665.597656 624.550781 676.671875 606.4375 684.933594 585.054688 C 692.917969 564.402344 698.363281 540.785156 699.863281 506.273438 C 701.359375 471.644531 701.726562 460.566406 701.574219 372.429688 C 701.421875 284.289062 700.992188 273.246094 699.371094 238.613281 C 697.71875 204.042969 692.214844 180.484375 684.136719 159.835938 C 675.785156 138.480469 664.679688 120.429688 646.597656 102.410156 C 628.519531 84.421875 610.40625 73.316406 589.019531 65.085938 C 568.371094 57.101562 544.753906 51.65625 510.210938 50.15625 C 475.582031 48.625 464.507812 48.289062 376.367188 48.441406 C 288.226562 48.597656 277.183594 48.992188 242.550781 50.644531 M 246.34375 637.460938 C 214.710938 636.082031 197.515625 630.820312 186.042969 626.414062 C 170.871094 620.542969 160.070312 613.503906 148.660156 602.214844 C 137.277344 590.867188 130.242188 580.066406 124.304688 564.953125 C 119.871094 553.511719 114.515625 536.347656 113.015625 504.683594 C 111.394531 470.480469 111.027344 460.203125 110.875 373.53125 C 110.722656 286.890625 111.027344 276.609375 112.527344 242.375 C 113.875 210.742188 119.167969 193.546875 123.570312 182.105469 C 129.445312 166.933594 136.453125 156.132812 147.769531 144.722656 C 159.121094 133.339844 169.921875 126.304688 185.066406 120.367188 C 196.507812 115.902344 213.667969 110.578125 245.304688 109.078125 C 279.539062 107.457031 289.785156 107.121094 376.457031 106.9375 C 463.128906 106.753906 473.410156 107.058594 507.644531 108.589844 C 539.277344 109.96875 556.46875 115.199219 567.910156 119.632812 C 583.085938 125.507812 593.917969 132.484375 605.296875 143.832031 C 616.679688 155.183594 623.746094 165.953125 629.648438 181.128906 C 634.117188 192.539062 639.441406 209.730469 640.9375 241.335938 C 642.558594 275.570312 642.925781 285.847656 643.082031 372.488281 C 643.234375 459.160156 642.925781 469.441406 641.429688 503.644531 C 640.050781 535.277344 634.789062 552.5 630.382812 563.945312 C 624.511719 579.085938 617.503906 589.917969 606.152344 601.296875 C 594.804688 612.648438 584.035156 619.714844 568.859375 625.652344 C 557.449219 630.117188 540.253906 635.441406 508.652344 636.941406 C 474.417969 638.5625 464.167969 638.929688 377.46875 639.082031 C 290.828125 639.234375 280.546875 638.929688 246.3125 637.429688 M 510.976562 199.515625 C 511.007812 221.019531 528.507812 238.429688 549.984375 238.367188 C 571.492188 238.335938 588.898438 220.867188 588.867188 199.359375 C 588.839844 177.855469 571.339844 160.445312 549.832031 160.476562 C 528.324219 160.507812 510.917969 178.007812 510.945312 199.484375 M 210.304688 373.347656 C 210.488281 465.402344 285.257812 539.867188 377.285156 539.683594 C 469.339844 539.5 543.835938 464.757812 543.652344 372.703125 C 543.46875 280.679688 468.695312 206.183594 376.640625 206.335938 C 284.617188 206.519531 210.121094 281.289062 210.304688 373.347656 M 268.769531 373.222656 C 268.675781 313.476562 317.015625 264.921875 376.765625 264.832031 C 436.511719 264.707031 485.066406 313.046875 485.1875 372.824219 C 485.308594 432.574219 436.941406 481.128906 377.191406 481.21875 C 317.441406 481.339844 268.890625 432.972656 268.800781 373.222656 " fill-opacity="1" fill-rule="nonzero"/></g></svg>